<svg id="Layer_1" data-name="Layer 1" xmlns="http://www.w3.org/2000/svg" viewBox="0 0 552.11 517.13"><path d="M88.4,446.92c0-15.35,0-30.7,0-46.05a2.81,2.81,0,0,0-1.54-2.81Q46.56,373.54,6.27,348.92a3.41,3.41,0,0,1-1.83-3.37q.08-52,0-104a3.29,3.29,0,0,1,1.89-3.3q41.91-24.63,83.79-49.33a2.39,2.39,0,0,0,1.32-2.41c-.09-6.93-.18-13.86-.19-20.79,0-22.93,0-45.87,0-68.8a3.52,3.52,0,0,1,2-3.48q25.72-15,51.39-30.1Q169,49,193.45,34.72a2.17,2.17,0,0,1,1.83,0Q214.15,45.67,233,56.67c15.24,8.9,30.54,17.7,45.68,26.76,2.55,1.53,4.11,1.12,6.37-.25q35.13-21.41,70.38-42.6c3.18-1.92,6.36-3.82,9.5-5.79a2.15,2.15,0,0,1,2.55,0q23.16,13.39,46.35,26.73c17.49,10.08,34.95,20.21,52.52,30.16,2.46,1.39,3.17,2.87,3.16,5.62-.1,29.1,0,58.19,0,87.29a3.82,3.82,0,0,0,2.11,3.83q32.51,18.78,64.92,37.74c6.26,3.65,12.5,7.33,18.79,10.91a2.19,2.19,0,0,1,1.28,2.21c0,15.59,0,31.18-.08,46.76-.07,19.73-.22,39.46-.25,59.19a3.34,3.34,0,0,1-1.93,3.3q-40.08,23.93-80.11,47.92a4.22,4.22,0,0,0-2.32,4.1q.08,45.87.07,91.74a2.93,2.93,0,0,1-1.79,3c-13,7.25-25.86,14.61-38.78,21.91l-50.63,28.6c-2.77,1.56-5.58,3.06-8.29,4.74a2.93,2.93,0,0,1-3.4,0c-9.57-5.47-19.18-10.87-28.74-16.34-18.1-10.37-36.21-20.72-54.22-31.24-2.56-1.49-4.36-1.59-7-.14-21.49,11.9-43.09,23.61-64.64,35.38q-11.56,6.33-23.09,12.71a3.3,3.3,0,0,1-3.7.07Q166.78,539,145.84,527.24q-26.46-15-52.94-29.9c-4.46-2.51-4.5-2.45-4.5-7.58ZM354.09,181.25H354c0-7.05,0-14.1,0-21.15a3.19,3.19,0,0,0-1.88-3.31c-8.19-4.54-16.32-9.2-24.46-13.83q-22.17-12.65-44.31-25.34a3.27,3.27,0,0,0-3.69.09c-11.44,6.41-22.94,12.73-34.41,19.09s-23.05,13-34.77,19.18c-3.87,2-4.91,4.18-4.86,8.62.35,28.68.21,57.36.25,86a2.08,2.08,0,0,1-1.17,2.11q-18.27,10.42-36.48,20.93-24.75,14.2-49.52,28.39a2.44,2.44,0,0,0-1.41,2.52c.16,7.28.26,14.57.37,21.85q.19,12.26.36,24.52c.13,9.12.26,18.24.33,27.36a2.14,2.14,0,0,0,1.21,2.1c3.68,2.11,7.32,4.29,11,6.45q28.77,17,57.51,34a2.71,2.71,0,0,0,3.08,0c9.65-5.44,19.33-10.81,29-16.19Q249.61,388.39,279,372a4.25,4.25,0,0,1,4.82,0c11.21,6.5,22.48,12.9,33.73,19.33Q343.27,406,369,420.75a3,3,0,0,0,3.52-.08q18.82-11.42,37.7-22.73c10.14-6.12,20.3-12.22,30.4-18.41a3.64,3.64,0,0,0,1.57-2.43c.27-4.13.31-8.28.41-12.42q.35-14.21.69-28.4c.25-10.65.46-21.3.77-31.95a3.07,3.07,0,0,0-1.78-3.22c-10.28-5.75-20.52-11.58-30.77-17.36Q383.54,268,355.6,252.27a2.22,2.22,0,0,1-1.24-2.24c-.06-15.87-.18-31.75-.26-47.62C354.06,195.36,354.09,188.31,354.09,181.25Zm86.38-57.71c-.73.32-1.15.48-1.54.7Q411.74,139.62,384.55,155a2,2,0,0,0-1.2,2.1c.14,3.31.27,6.62.3,9.94q.23,25,.41,50.09c0,2.6.3,2.77,2.54,1.47q26.13-15.21,52.27-30.4a2.84,2.84,0,0,0,1.6-2.81q0-28.69,0-57.39Zm2.81,290c-2.88,1.64-5.32,3.05-7.78,4.44q-24,13.6-48,27.26a2.86,2.86,0,0,0-1.16,2.06c-.07,2.42.15,4.85.17,7.27q.22,26.47.42,52.95c0,2.31.3,2.49,2.26,1.35L442,478.21a2.28,2.28,0,0,0,1.32-2.25q-.06-30.12-.05-60.25Zm-183.49,1.24c-.72.33-1.14.5-1.53.72q-27.18,15.4-54.34,30.86a2.62,2.62,0,0,0-1.09,1.91c-.06,2.48.15,5,.18,7.45q.23,26.48.42,52.95c0,2.22.29,2.4,2.16,1.31q26.43-15.31,52.85-30.63a2.42,2.42,0,0,0,1.41-2.38q-.08-30-.06-60.07Zm268.47-147.6c-.71.37-1,.51-1.33.68q-27.27,15.44-54.5,30.92a2.72,2.72,0,0,0-1.09,1.93c-.11,1.58.12,3.19.13,4.79q.22,27.72.43,55.45c0,2.42.28,2.58,2.36,1.37q26.26-15.26,52.53-30.49a2.7,2.7,0,0,0,1.51-2.69q-.06-29.88,0-59.74ZM300.61,414.26c0,.67-.1,1.13-.1,1.59q0,30.56,0,61.12a2.36,2.36,0,0,0,1.43,2.33q22.91,13.05,45.8,26.15l8.29,4.74a27.53,27.53,0,0,0,.51-3.37q.15-10.92.21-21.85c.07-12.26.08-24.52.21-36.78a2.73,2.73,0,0,0-1.64-2.73q-26.52-15.13-53-30.33C301.78,414.84,301.27,414.6,300.61,414.26Zm-181.11.55v2.57c0,19.79,0,39.57,0,59.35a3.66,3.66,0,0,0,2.13,3.72q25.72,14.58,51.35,29.3c.58.33,1.2.61,2,1a18.17,18.17,0,0,0,.53-2.83c.14-19.78.24-39.56.41-59.34a2.3,2.3,0,0,0-1.43-2.31q-22.81-13-45.61-26.14ZM32.38,268.33v2.25q0,30,0,60.06a3.12,3.12,0,0,0,1.89,3.13Q56.61,346.51,79,359.31c2.85,1.63,5.71,3.25,8.92,5.07a26.86,26.86,0,0,0,.51-3.34q.15-10.92.21-21.85c.07-12.32.09-24.64.2-37a2.46,2.46,0,0,0-1.47-2.46q-24-13.71-47.91-27.47C37.17,271,34.92,269.77,32.38,268.33ZM177.45,220a20.59,20.59,0,0,0,.54-3.11c.14-19.54.24-39.09.4-58.64a2.87,2.87,0,0,0-1.63-2.93Q152.93,141.7,129.14,128c-2.28-1.3-4.57-2.58-7.15-4v2.46c0,19.67.05,39.34,0,59a4.14,4.14,0,0,0,2.45,4.24c14,7.89,27.88,15.9,41.81,23.87C169.82,215.65,173.46,217.7,177.45,220ZM195,133.1c1.07-.55,2.13-1.06,3.15-1.64q22.53-12.9,45-25.84c1.94-1.11,3.86-2.26,5.7-3.52,1.15-.79,1.4-1.57-.2-2.41-3.44-1.81-6.77-3.81-10.15-5.73L218.12,82.38,196.33,70a3,3,0,0,0-3.28,0q-9.18,5.44-18.4,10.81-16.38,9.55-32.79,19.08c-2,1.15-2,2.32,0,3.44q9.82,5.58,19.65,11.12,14.23,8,28.48,16C191.64,131.32,193.3,132.19,195,133.1Zm-90,80.6c-.38.19-.89.41-1.37.69l-37.84,22c-4.53,2.63-9.07,5.25-13.59,7.91-1.91,1.12-1.89,2.15,0,3.32.25.15.52.28.77.43l21.68,12.2q14.78,8.29,29.54,16.61a2,2,0,0,0,2.41,0c1.68-1.07,3.46-2,5.2-3l46.42-26.64a8.38,8.38,0,0,0,1.26-1c1-.85.9-1.45-.29-2.1-3.11-1.67-6.16-3.44-9.23-5.18L106.68,214.4A15.15,15.15,0,0,0,105,213.7ZM365.28,69a13,13,0,0,0-1.28.6q-4.89,2.82-9.77,5.66-20.75,12.09-41.47,24.18c-2.31,1.35-2.32,2.25,0,3.55,4,2.31,8.09,4.57,12.14,6.85,12.87,7.22,25.77,14.42,38.6,21.71a3.83,3.83,0,0,0,4.43.08c15.29-8.86,30.63-17.6,45.95-26.4,2-1.14,4-2.34,5.85-3.62,1.07-.73,1.14-1.46-.23-2.19-3.12-1.66-6.16-3.46-9.23-5.2L366.92,69.63A13,13,0,0,0,365.28,69ZM455,212.64c-.5.24-1,.43-1.41.69q-14.57,8.46-29.12,16.95c-7.43,4.32-14.87,8.6-22.3,12.93-1.94,1.13-1.94,2.16,0,3.29,2.18,1.29,4.4,2.51,6.61,3.75,14.77,8.28,29.57,16.53,44.29,24.91a4.07,4.07,0,0,0,4.73,0c15-8.67,30-17.24,45-25.87,2.24-1.28,4.45-2.64,6.6-4.06,1.06-.7,1-1.43-.23-2.1-3.61-2-7.18-4-10.76-6.06l-41.6-23.59C456.21,213.15,455.61,212.94,455,212.64Z" transform="translate(-4.44 -34.36)"/></svg>